<?xml version="1.0" encoding="UTF-8"?>
<svg id="Layer_1" data-name="Layer 1" xmlns="http://www.w3.org/2000/svg" viewBox="0 0 240 277.12">
  <defs>
    <style>
      .cls-1 {
        fill: #ffc01e;
      }

      .cls-1, .cls-2 {
        fill-rule: evenodd;
      }

      .cls-2 {
        fill: #ffc01e;
      }
    </style>
  </defs>
  <polygon class="cls-2" points="195 181.86 210 190.52 195 199.18 180 190.52 165 181.86 165 147.22 180 138.56 195 129.9 210 138.56 195 147.22 180 155.88 195 164.54 180 173.2 195 181.86"/>
  <path class="cls-1" d="m90,51.96v86.6l-15,8.66-15,8.66-15,8.66-15,8.66v17.32l30,17.32,15,8.66,15,8.66,15,8.66V43.3l-15,8.66Zm0,155.88l-30-17.32-15-8.66,15-8.66,15-8.66,15-8.66v51.96Z"/>
  <path class="cls-1" d="m225,60.62l-15-8.66-30-17.32-15-8.66-15-8.66-15-8.66L120,0l-15,8.66-15,8.66-15,8.66-15,8.66-30,17.32-15,8.66L0,69.28v138.56l15,8.66,15,8.66,15,8.66,15,8.66,15,8.66,30,17.32,15,8.66,15-8.66,30-17.32,15-8.66,15-8.66,15-8.66,15-8.66,15-8.66V69.28l-15-8.66Zm0,138.56l-15,8.66-15,8.66-15,8.66-15,8.66-15,8.66-15,8.66-15,8.66-15-8.66-15-8.66-15-8.66-15-8.66-15-8.66-15-8.66-15-8.66v-121.24l15-8.66,15-8.66,15-8.66,30-17.32,15-8.66,15-8.66,15,8.66,15,8.66,30,17.32,15,8.66,15,8.66,15,8.66v121.24Z"/>
  <path class="cls-1" d="m195,77.94l-15-8.66-15-8.66-15-8.66-15-8.66v190.52l15-8.66v-86.6l15-8.66,30-17.32,15-8.66v-17.32l-15-8.66Zm-15,25.98l-15,8.66-15,8.66v-51.96l15,8.66,15,8.66,15,8.66-15,8.66Z"/>
  <polygon class="cls-2" points="75 95.26 75 129.9 60 138.56 45 147.22 30 138.56 45 129.9 60 121.24 45 112.58 60 103.92 45 95.26 30 86.6 45 77.94 60 86.6 75 95.26"/>
</svg>